<svg width="202" height="122" viewBox="0 0 202 122" fill="none" xmlns="http://www.w3.org/2000/svg">
<path d="M5.63415 117.122V122H0.756097V117.122H5.63415ZM5.63415 112.244V117.122H0.756097V112.244H5.63415ZM5.63415 107.366V112.244H0.756097V107.366H5.63415ZM5.63415 102.488V107.366H0.756097V102.488H5.63415ZM5.63415 97.6098V102.488H0.756097V97.6098H5.63415ZM5.63415 92.7317V97.6098H0.756097V92.7317H5.63415ZM5.63415 87.8537V92.7317H0.756097V87.8537H5.63415ZM5.63415 82.9756V87.8537H0.756097V82.9756H5.63415ZM5.63415 78.0976V82.9756H0.756097V78.0976H5.63415ZM5.63415 73.2195V78.0976H0.756097V73.2195H5.63415ZM5.63415 68.3415V73.2195H0.756097V68.3415H5.63415ZM5.63415 63.4634V68.3415H0.756097V63.4634H5.63415ZM5.63415 58.5854V63.4634H0.756097V58.5854H5.63415ZM5.63415 53.7073V58.5854H0.756097V53.7073H5.63415ZM5.63415 48.8293V53.7073H0.756097V48.8293H5.63415ZM10.5122 48.8293V53.7073H5.63415V48.8293H10.5122ZM10.5122 53.7073V58.5854H5.63415V53.7073H10.5122ZM10.5122 58.5854V63.4634H5.63415V58.5854H10.5122ZM10.5122 63.4634V68.3415H5.63415V63.4634H10.5122ZM10.5122 68.3415V73.2195H5.63415V68.3415H10.5122ZM10.5122 73.2195V78.0976H5.63415V73.2195H10.5122ZM10.5122 78.0976V82.9756H5.63415V78.0976H10.5122ZM15.3902 82.9756V87.8537H10.5122V82.9756H15.3902ZM15.3902 87.8537V92.7317H10.5122V87.8537H15.3902ZM15.3902 92.7317V97.6098H10.5122V92.7317H15.3902ZM15.3902 97.6098V102.488H10.5122V97.6098H15.3902ZM15.3902 102.488V107.366H10.5122V102.488H15.3902ZM15.3902 107.366V112.244H10.5122V107.366H15.3902ZM15.3902 112.244V117.122H10.5122V112.244H15.3902ZM15.3902 117.122V122H10.5122V117.122H15.3902ZM20.2683 117.122V122H15.3902V117.122H20.2683ZM25.1463 117.122V122H20.2683V117.122H25.1463ZM25.1463 112.244V117.122H20.2683V112.244H25.1463ZM25.1463 107.366V112.244H20.2683V107.366H25.1463ZM25.1463 102.488V107.366H20.2683V102.488H25.1463ZM25.1463 97.6098V102.488H20.2683V97.6098H25.1463ZM25.1463 92.7317V97.6098H20.2683V92.7317H25.1463ZM25.1463 87.8537V92.7317H20.2683V87.8537H25.1463ZM25.1463 82.9756V87.8537H20.2683V82.9756H25.1463ZM20.2683 82.9756V87.8537H15.3902V82.9756H20.2683ZM20.2683 78.0976V82.9756H15.3902V78.0976H20.2683ZM20.2683 87.8537V92.7317H15.3902V87.8537H20.2683ZM20.2683 92.7317V97.6098H15.3902V92.7317H20.2683ZM20.2683 97.6098V102.488H15.3902V97.6098H20.2683ZM20.2683 102.488V107.366H15.3902V102.488H20.2683ZM20.2683 107.366V112.244H15.3902V107.366H20.2683ZM20.2683 112.244V117.122H15.3902V112.244H20.2683ZM10.5122 117.122V122H5.63415V117.122H10.5122ZM10.5122 112.244V117.122H5.63415V112.244H10.5122ZM10.5122 107.366V112.244H5.63415V107.366H10.5122ZM10.5122 102.488V107.366H5.63415V102.488H10.5122ZM10.5122 97.6098V102.488H5.63415V97.6098H10.5122ZM10.5122 92.7317V97.6098H5.63415V92.7317H10.5122ZM10.5122 87.8537V92.7317H5.63415V87.8537H10.5122ZM10.5122 82.9756V87.8537H5.63415V82.9756H10.5122ZM5.63415 0.0487776V4.92683H0.756097V0.0487776H5.63415ZM5.63415 4.92683V9.80488H0.756097V4.92683H5.63415ZM5.63415 9.80488V14.6829H0.756097V9.80488H5.63415ZM5.63415 14.6829V19.561H0.756097V14.6829H5.63415ZM5.63415 19.561V24.439H0.756097V19.561H5.63415ZM5.63415 24.439V29.3171H0.756097V24.439H5.63415ZM5.63415 29.3171V34.1951H0.756097V29.3171H5.63415ZM5.63415 34.1951V39.0732H0.756097V34.1951H5.63415ZM5.63415 39.0732V43.9512H0.756097V39.0732H5.63415ZM5.63415 43.9512V48.8293H0.756097V43.9512H5.63415ZM20.2683 0.0487776V4.92683H15.3902V0.0487776H20.2683ZM20.2683 4.92683V9.80488H15.3902V4.92683H20.2683ZM20.2683 9.80488V14.6829H15.3902V9.80488H20.2683ZM20.2683 14.6829V19.561H15.3902V14.6829H20.2683ZM20.2683 19.561V24.439H15.3902V19.561H20.2683ZM20.2683 24.439V29.3171H15.3902V24.439H20.2683ZM20.2683 34.1951V39.0732H15.3902V34.1951H20.2683ZM20.2683 39.0732V43.9512H15.3902V39.0732H20.2683ZM20.2683 43.9512V48.8293H15.3902V43.9512H20.2683ZM20.2683 48.8293V53.7073H15.3902V48.8293H20.2683ZM20.2683 53.7073V58.5854H15.3902V53.7073H20.2683ZM20.2683 58.5854V63.4634H15.3902V58.5854H20.2683ZM20.2683 63.4634V68.3415H15.3902V63.4634H20.2683ZM25.1463 68.3415V73.2195H20.2683V68.3415H25.1463ZM25.1463 73.2195V78.0976H20.2683V73.2195H25.1463ZM25.1463 78.0976V82.9756H20.2683V78.0976H25.1463ZM25.1463 63.4634V68.3415H20.2683V63.4634H25.1463ZM25.1463 58.5854V63.4634H20.2683V58.5854H25.1463ZM25.1463 53.7073V58.5854H20.2683V53.7073H25.1463ZM25.1463 48.8293V53.7073H20.2683V48.8293H25.1463ZM25.1463 43.9512V48.8293H20.2683V43.9512H25.1463ZM25.1463 39.0732V43.9512H20.2683V39.0732H25.1463ZM25.1463 34.1951V39.0732H20.2683V34.1951H25.1463ZM25.1463 29.3171V34.1951H20.2683V29.3171H25.1463ZM25.1463 24.439V29.3171H20.2683V24.439H25.1463ZM25.1463 19.561V24.439H20.2683V19.561H25.1463ZM20.2683 29.3171V34.1951H15.3902V29.3171H20.2683ZM25.1463 14.6829V19.561H20.2683V14.6829H25.1463ZM25.1463 9.80488V14.6829H20.2683V9.80488H25.1463ZM25.1463 4.92683V9.80488H20.2683V4.92683H25.1463ZM25.1463 0.0487776V4.92683H20.2683V0.0487776H25.1463ZM15.3902 0.0487776V4.92683H10.5122V0.0487776H15.3902ZM10.5122 0.0487776V4.92683H5.63415V0.0487776H10.5122ZM10.5122 4.92683V9.80488H5.63415V4.92683H10.5122ZM15.3902 4.92683V9.80488H10.5122V4.92683H15.3902ZM15.3902 9.80488V14.6829H10.5122V9.80488H15.3902ZM15.3902 14.6829V19.561H10.5122V14.6829H15.3902ZM15.3902 19.561V24.439H10.5122V19.561H15.3902ZM15.3902 24.439V29.3171H10.5122V24.439H15.3902ZM15.3902 29.3171V34.1951H10.5122V29.3171H15.3902ZM15.3902 34.1951V39.0732H10.5122V34.1951H15.3902ZM10.5122 39.0732V43.9512H5.63415V39.0732H10.5122ZM10.5122 43.9512V48.8293H5.63415V43.9512H10.5122ZM10.5122 34.1951V39.0732H5.63415V34.1951H10.5122ZM10.5122 29.3171V34.1951H5.63415V29.3171H10.5122ZM10.5122 24.439V29.3171H5.63415V24.439H10.5122ZM10.5122 19.561V24.439H5.63415V19.561H10.5122ZM10.5122 14.6829V19.561H5.63415V14.6829H10.5122ZM10.5122 9.80488V14.6829H5.63415V9.80488H10.5122ZM15.3902 39.0732V43.9512H10.5122V39.0732H15.3902ZM15.3902 43.9512V48.8293H10.5122V43.9512H15.3902ZM15.3902 48.8293V53.7073H10.5122V48.8293H15.3902ZM15.3902 53.7073V58.5854H10.5122V53.7073H15.3902ZM15.3902 58.5854V63.4634H10.5122V58.5854H15.3902ZM15.3902 63.4634V68.3415H10.5122V63.4634H15.3902ZM15.3902 68.3415V73.2195H10.5122V68.3415H15.3902ZM15.3902 73.2195V78.0976H10.5122V73.2195H15.3902ZM15.3902 78.0976V82.9756H10.5122V78.0976H15.3902ZM20.2683 73.2195V78.0976H15.3902V73.2195H20.2683ZM20.2683 68.3415V73.2195H15.3902V68.3415H20.2683ZM30.0244 0.0487776V4.92683H25.1463V0.0487776H30.0244ZM34.9024 0.0487776V4.92683H30.0244V0.0487776H34.9024ZM34.9024 4.92683V9.80488H30.0244V4.92683H34.9024ZM30.0244 4.92683V9.80488H25.1463V4.92683H30.0244ZM30.0244 9.80488V14.6829H25.1463V9.80488H30.0244ZM34.9024 9.80488V14.6829H30.0244V9.80488H34.9024ZM34.9024 14.6829V19.561H30.0244V14.6829H34.9024ZM30.0244 14.6829V19.561H25.1463V14.6829H30.0244ZM30.0244 19.561V24.439H25.1463V19.561H30.0244ZM34.9024 19.561V24.439H30.0244V19.561H34.9024ZM30.0244 117.122V122H25.1463V117.122H30.0244ZM34.9024 117.122V122H30.0244V117.122H34.9024ZM34.9024 112.244V117.122H30.0244V112.244H34.9024ZM34.9024 107.366V112.244H30.0244V107.366H34.9024ZM34.9024 102.488V107.366H30.0244V102.488H34.9024ZM34.9024 97.6098V102.488H30.0244V97.6098H34.9024ZM30.0244 97.6098V102.488H25.1463V97.6098H30.0244ZM30.0244 102.488V107.366H25.1463V102.488H30.0244ZM30.0244 107.366V112.244H25.1463V107.366H30.0244ZM30.0244 112.244V117.122H25.1463V112.244H30.0244ZM59.2927 39.0732V43.9512H54.4146V39.0732H59.2927ZM59.2927 34.1951V39.0732H54.4146V34.1951H59.2927ZM59.2927 29.3171V34.1951H54.4146V29.3171H59.2927ZM54.4146 24.439V29.3171H49.5366V24.439H54.4146ZM49.5366 19.561V24.439H44.6585V19.561H49.5366ZM44.6585 19.561V24.439H39.7805V19.561H44.6585ZM39.7805 19.561V24.439H34.9024V19.561H39.7805ZM39.7805 0.0487776V4.92683H34.9024V0.0487776H39.7805ZM44.6585 0.0487776V4.92683H39.7805V0.0487776H44.6585ZM49.5366 0.0487776V4.92683H44.6585V0.0487776H49.5366ZM54.4146 0.0487776V4.92683H49.5366V0.0487776H54.4146ZM54.4146 4.92683V9.80488H49.5366V4.92683H54.4146ZM54.4146 9.80488V14.6829H49.5366V9.80488H54.4146ZM54.4146 14.6829V19.561H49.5366V14.6829H54.4146ZM49.5366 14.6829V19.561H44.6585V14.6829H49.5366ZM49.5366 9.80488V14.6829H44.6585V9.80488H49.5366ZM44.6585 9.80488V14.6829H39.7805V9.80488H44.6585ZM39.7805 9.80488V14.6829H34.9024V9.80488H39.7805ZM39.7805 4.92683V9.80488H34.9024V4.92683H39.7805ZM44.6585 4.92683V9.80488H39.7805V4.92683H44.6585ZM49.5366 4.92683V9.80488H44.6585V4.92683H49.5366ZM39.7805 14.6829V19.561H34.9024V14.6829H39.7805ZM44.6585 14.6829V19.561H39.7805V14.6829H44.6585ZM54.4146 19.561V24.439H49.5366V19.561H54.4146ZM59.2927 24.439V29.3171H54.4146V24.439H59.2927ZM59.2927 19.561V24.439H54.4146V19.561H59.2927ZM59.2927 14.6829V19.561H54.4146V14.6829H59.2927ZM59.2927 9.80488V14.6829H54.4146V9.80488H59.2927ZM59.2927 4.92683V9.80488H54.4146V4.92683H59.2927ZM59.2927 0.0487776V4.92683H54.4146V0.0487776H59.2927ZM59.2927 43.9512V48.8293H54.4146V43.9512H59.2927ZM59.2927 48.8293V53.7073H54.4146V48.8293H59.2927ZM59.2927 53.7073V58.5854H54.4146V53.7073H59.2927ZM59.2927 58.5854V63.4634H54.4146V58.5854H59.2927ZM59.2927 63.4634V68.3415H54.4146V63.4634H59.2927ZM59.2927 68.3415V73.2195H54.4146V68.3415H59.2927ZM59.2927 78.0976V82.9756H54.4146V78.0976H59.2927ZM59.2927 73.2195V78.0976H54.4146V73.2195H59.2927ZM59.2927 82.9756V87.8537H54.4146V82.9756H59.2927ZM59.2927 87.8537V92.7317H54.4146V87.8537H59.2927ZM39.7805 97.6098V102.488H34.9024V97.6098H39.7805ZM44.6585 97.6098V102.488H39.7805V97.6098H44.6585ZM49.5366 97.6098V102.488H44.6585V97.6098H49.5366ZM54.4146 92.7317V97.6098H49.5366V92.7317H54.4146ZM59.2927 92.7317V97.6098H54.4146V92.7317H59.2927ZM59.2927 97.6098V102.488H54.4146V97.6098H59.2927ZM54.4146 97.6098V102.488H49.5366V97.6098H54.4146ZM59.2927 102.488V107.366H54.4146V102.488H59.2927ZM59.2927 107.366V112.244H54.4146V107.366H59.2927ZM59.2927 112.244V117.122H54.4146V112.244H59.2927ZM59.2927 117.122V122H54.4146V117.122H59.2927ZM54.4146 117.122V122H49.5366V117.122H54.4146ZM54.4146 112.244V117.122H49.5366V112.244H54.4146ZM49.5366 112.244V117.122H44.6585V112.244H49.5366ZM44.6585 117.122V122H39.7805V117.122H44.6585ZM39.7805 117.122V122H34.9024V117.122H39.7805ZM49.5366 117.122V122H44.6585V117.122H49.5366ZM44.6585 112.244V117.122H39.7805V112.244H44.6585ZM39.7805 112.244V117.122H34.9024V112.244H39.7805ZM39.7805 107.366V112.244H34.9024V107.366H39.7805ZM44.6585 107.366V112.244H39.7805V107.366H44.6585ZM49.5366 107.366V112.244H44.6585V107.366H49.5366ZM54.4146 107.366V112.244H49.5366V107.366H54.4146ZM54.4146 102.488V107.366H49.5366V102.488H54.4146ZM49.5366 102.488V107.366H44.6585V102.488H49.5366ZM44.6585 102.488V107.366H39.7805V102.488H44.6585ZM39.7805 102.488V107.366H34.9024V102.488H39.7805ZM64.1707 4.92683V9.80488H59.2927V4.92683H64.1707ZM69.0488 4.92683V9.80488H64.1707V4.92683H69.0488ZM69.0488 9.80488V14.6829H64.1707V9.80488H69.0488ZM73.9268 9.80488V14.6829H69.0488V9.80488H73.9268ZM73.9268 14.6829V19.561H69.0488V14.6829H73.9268ZM73.9268 19.561V24.439H69.0488V19.561H73.9268ZM78.8049 19.561V24.439H73.9268V19.561H78.8049ZM78.8049 24.439V29.3171H73.9268V24.439H78.8049ZM78.8049 29.3171V34.1951H73.9268V29.3171H78.8049ZM78.8049 34.1951V39.0732H73.9268V34.1951H78.8049ZM78.8049 39.0732V43.9512H73.9268V39.0732H78.8049ZM78.8049 43.9512V48.8293H73.9268V43.9512H78.8049ZM78.8049 48.8293V53.7073H73.9268V48.8293H78.8049ZM73.9268 53.7073V58.5854H69.0488V53.7073H73.9268ZM69.0488 58.5854V63.4634H64.1707V58.5854H69.0488ZM73.9268 63.4634V68.3415H69.0488V63.4634H73.9268ZM78.8049 68.3415V73.2195H73.9268V68.3415H78.8049ZM64.1707 112.244V117.122H59.2927V112.244H64.1707ZM69.0488 112.244V117.122H64.1707V112.244H69.0488ZM73.9268 107.366V112.244H69.0488V107.366H73.9268ZM78.8049 97.6098V102.488H73.9268V97.6098H78.8049ZM69.0488 107.366V112.244H64.1707V107.366H69.0488ZM69.0488 102.488V107.366H64.1707V102.488H69.0488ZM73.9268 102.488V107.366H69.0488V102.488H73.9268ZM78.8049 92.7317V97.6098H73.9268V92.7317H78.8049ZM78.8049 87.8537V92.7317H73.9268V87.8537H78.8049ZM78.8049 82.9756V87.8537H73.9268V82.9756H78.8049ZM78.8049 78.0976V82.9756H73.9268V78.0976H78.8049ZM78.8049 73.2195V78.0976H73.9268V73.2195H78.8049ZM64.1707 63.4634V68.3415H59.2927V63.4634H64.1707ZM69.0488 63.4634V68.3415H64.1707V63.4634H69.0488ZM69.0488 68.3415V73.2195H64.1707V68.3415H69.0488ZM64.1707 68.3415V73.2195H59.2927V68.3415H64.1707ZM73.9268 68.3415V73.2195H69.0488V68.3415H73.9268ZM73.9268 73.2195V78.0976H69.0488V73.2195H73.9268ZM73.9268 78.0976V82.9756H69.0488V78.0976H73.9268ZM73.9268 82.9756V87.8537H69.0488V82.9756H73.9268ZM73.9268 87.8537V92.7317H69.0488V87.8537H73.9268ZM73.9268 92.7317V97.6098H69.0488V92.7317H73.9268ZM73.9268 97.6098V102.488H69.0488V97.6098H73.9268ZM69.0488 97.6098V102.488H64.1707V97.6098H69.0488ZM69.0488 92.7317V97.6098H64.1707V92.7317H69.0488ZM69.0488 87.8537V92.7317H64.1707V87.8537H69.0488ZM69.0488 82.9756V87.8537H64.1707V82.9756H69.0488ZM69.0488 78.0976V82.9756H64.1707V78.0976H69.0488ZM69.0488 73.2195V78.0976H64.1707V73.2195H69.0488ZM64.1707 73.2195V78.0976H59.2927V73.2195H64.1707ZM64.1707 78.0976V82.9756H59.2927V78.0976H64.1707ZM64.1707 82.9756V87.8537H59.2927V82.9756H64.1707ZM64.1707 87.8537V92.7317H59.2927V87.8537H64.1707ZM64.1707 92.7317V97.6098H59.2927V92.7317H64.1707ZM64.1707 97.6098V102.488H59.2927V97.6098H64.1707ZM64.1707 102.488V107.366H59.2927V102.488H64.1707ZM64.1707 107.366V112.244H59.2927V107.366H64.1707ZM64.1707 9.80488V14.6829H59.2927V9.80488H64.1707ZM64.1707 14.6829V19.561H59.2927V14.6829H64.1707ZM64.1707 19.561V24.439H59.2927V19.561H64.1707ZM64.1707 24.439V29.3171H59.2927V24.439H64.1707ZM64.1707 29.3171V34.1951H59.2927V29.3171H64.1707ZM64.1707 34.1951V39.0732H59.2927V34.1951H64.1707ZM64.1707 39.0732V43.9512H59.2927V39.0732H64.1707ZM64.1707 43.9512V48.8293H59.2927V43.9512H64.1707ZM64.1707 48.8293V53.7073H59.2927V48.8293H64.1707ZM64.1707 53.7073V58.5854H59.2927V53.7073H64.1707ZM64.1707 58.5854V63.4634H59.2927V58.5854H64.1707ZM69.0488 53.7073V58.5854H64.1707V53.7073H69.0488ZM69.0488 48.8293V53.7073H64.1707V48.8293H69.0488ZM69.0488 43.9512V48.8293H64.1707V43.9512H69.0488ZM69.0488 39.0732V43.9512H64.1707V39.0732H69.0488ZM69.0488 34.1951V39.0732H64.1707V34.1951H69.0488ZM69.0488 29.3171V34.1951H64.1707V29.3171H69.0488ZM69.0488 24.439V29.3171H64.1707V24.439H69.0488ZM69.0488 19.561V24.439H64.1707V19.561H69.0488ZM69.0488 14.6829V19.561H64.1707V14.6829H69.0488ZM73.9268 24.439V29.3171H69.0488V24.439H73.9268ZM73.9268 29.3171V34.1951H69.0488V29.3171H73.9268ZM73.9268 34.1951V39.0732H69.0488V34.1951H73.9268ZM73.9268 39.0732V43.9512H69.0488V39.0732H73.9268ZM73.9268 43.9512V48.8293H69.0488V43.9512H73.9268ZM73.9268 48.8293V53.7073H69.0488V48.8293H73.9268ZM78.8049 53.7073V58.5854H73.9268V53.7073H78.8049ZM78.8049 58.5854V63.4634H73.9268V58.5854H78.8049ZM78.8049 63.4634V68.3415H73.9268V63.4634H78.8049ZM73.9268 58.5854V63.4634H69.0488V58.5854H73.9268ZM129.242 81.4146V84.5366H126.12V81.4146H129.242ZM132.364 81.4146V84.5366H129.242V81.4146H132.364ZM135.486 81.4146V84.5366H132.364V81.4146H135.486ZM138.607 81.4146V84.5366H135.486V81.4146H138.607ZM141.729 81.4146V84.5366H138.607V81.4146H141.729ZM141.729 78.2927V81.4146H138.607V78.2927H141.729ZM141.729 75.1707V78.2927H138.607V75.1707H141.729ZM138.607 75.1707V78.2927H135.486V75.1707H138.607ZM135.486 75.1707V78.2927H132.364V75.1707H135.486ZM132.364 75.1707V78.2927H129.242V75.1707H132.364ZM132.364 78.2927V81.4146H129.242V78.2927H132.364ZM129.242 78.2927V81.4146H126.12V78.2927H129.242ZM135.486 78.2927V81.4146H132.364V78.2927H135.486ZM138.607 78.2927V81.4146H135.486V78.2927H138.607ZM129.242 75.1707V78.2927H126.12V75.1707H129.242ZM126.12 75.1707V78.2927H122.998V75.1707H126.12ZM126.12 72.0488V75.1707H122.998V72.0488H126.12ZM129.242 72.0488V75.1707H126.12V72.0488H129.242ZM132.364 72.0488V75.1707H129.242V72.0488H132.364ZM135.486 72.0488V75.1707H132.364V72.0488H135.486ZM138.607 72.0488V75.1707H135.486V72.0488H138.607ZM138.607 68.9268V72.0488H135.486V68.9268H138.607ZM135.486 68.9268V72.0488H132.364V68.9268H135.486ZM132.364 68.9268V72.0488H129.242V68.9268H132.364ZM129.242 68.9268V72.0488H126.12V68.9268H129.242ZM126.12 68.9268V72.0488H122.998V68.9268H126.12ZM132.364 65.8049V68.9268H129.242V65.8049H132.364ZM135.486 65.8049V68.9268H132.364V65.8049H135.486ZM129.242 65.8049V68.9268H126.12V65.8049H129.242ZM129.242 62.6829V65.8049H126.12V62.6829H129.242ZM126.12 62.6829V65.8049H122.998V62.6829H126.12ZM126.12 65.8049V68.9268H122.998V65.8049H126.12ZM122.998 65.8049V68.9268H119.876V65.8049H122.998ZM122.998 62.6829V65.8049H119.876V62.6829H122.998ZM122.998 68.9268V72.0488H119.876V68.9268H122.998ZM119.876 68.9268V72.0488H116.754V68.9268H119.876ZM119.876 72.0488V75.1707H116.754V72.0488H119.876ZM122.998 72.0488V75.1707H119.876V72.0488H122.998ZM116.754 72.0488V75.1707H113.632V72.0488H116.754ZM116.754 68.9268V72.0488H113.632V68.9268H116.754ZM116.754 65.8049V68.9268H113.632V65.8049H116.754ZM116.754 62.6829V65.8049H113.632V62.6829H116.754ZM119.876 62.6829V65.8049H116.754V62.6829H119.876ZM119.876 65.8049V68.9268H116.754V65.8049H119.876ZM113.632 62.6829V65.8049H110.51V62.6829H113.632ZM110.51 62.6829V65.8049H107.388V62.6829H110.51ZM107.388 62.6829V65.8049H104.266V62.6829H107.388ZM107.388 65.8049V68.9268H104.266V65.8049H107.388ZM107.388 68.9268V72.0488H104.266V68.9268H107.388ZM107.388 72.0488V75.1707H104.266V72.0488H107.388ZM110.51 72.0488V75.1707H107.388V72.0488H110.51ZM113.632 72.0488V75.1707H110.51V72.0488H113.632ZM113.632 68.9268V72.0488H110.51V68.9268H113.632ZM113.632 65.8049V68.9268H110.51V65.8049H113.632ZM110.51 65.8049V68.9268H107.388V65.8049H110.51ZM110.51 68.9268V72.0488H107.388V68.9268H110.51ZM104.266 68.9268V72.0488H101.144V68.9268H104.266ZM104.266 65.8049V68.9268H101.144V65.8049H104.266ZM101.144 65.8049V68.9268H98.0221V65.8049H101.144ZM101.144 68.9268V72.0488H98.0221V68.9268H101.144ZM98.0221 68.9268V72.0488H94.9002V68.9268H98.0221ZM98.0221 72.0488V75.1707H94.9002V72.0488H98.0221ZM98.0221 75.1707V78.2927H94.9002V75.1707H98.0221ZM101.144 75.1707V78.2927H98.0221V75.1707H101.144ZM101.144 72.0488V75.1707H98.0221V72.0488H101.144ZM104.266 72.0488V75.1707H101.144V72.0488H104.266ZM104.266 75.1707V78.2927H101.144V75.1707H104.266ZM107.388 75.1707V78.2927H104.266V75.1707H107.388ZM110.51 75.1707V78.2927H107.388V75.1707H110.51ZM94.9002 75.1707V78.2927H91.7782V75.1707H94.9002ZM94.9002 78.2927V81.4146H91.7782V78.2927H94.9002ZM94.9002 81.4146V84.5366H91.7782V81.4146H94.9002ZM94.9002 84.5366V87.6585H91.7782V84.5366H94.9002ZM94.9002 87.6585V90.7805H91.7782V87.6585H94.9002ZM94.9002 90.7805V93.9024H91.7782V90.7805H94.9002ZM94.9002 93.9024V97.0244H91.7782V93.9024H94.9002ZM94.9002 97.0244V100.146H91.7782V97.0244H94.9002ZM94.9002 100.146V103.268H91.7782V100.146H94.9002ZM94.9002 103.268V106.39H91.7782V103.268H94.9002ZM98.0221 103.268V106.39H94.9002V103.268H98.0221ZM98.0221 106.39V109.512H94.9002V106.39H98.0221ZM94.9002 106.39V109.512H91.7782V106.39H94.9002ZM101.144 106.39V109.512H98.0221V106.39H101.144ZM104.266 106.39V109.512H101.144V106.39H104.266ZM107.388 106.39V109.512H104.266V106.39H107.388ZM110.51 106.39V109.512H107.388V106.39H110.51ZM107.388 103.268V106.39H104.266V103.268H107.388ZM107.388 100.146V103.268H104.266V100.146H107.388ZM107.388 97.0244V100.146H104.266V97.0244H107.388ZM107.388 93.9024V97.0244H104.266V93.9024H107.388ZM107.388 90.7805V93.9024H104.266V90.7805H107.388ZM107.388 87.6585V90.7805H104.266V87.6585H107.388ZM107.388 84.5366V87.6585H104.266V84.5366H107.388ZM107.388 81.4146V84.5366H104.266V81.4146H107.388ZM107.388 78.2927V81.4146H104.266V78.2927H107.388ZM104.266 78.2927V81.4146H101.144V78.2927H104.266ZM101.144 78.2927V81.4146H98.0221V78.2927H101.144ZM98.0221 78.2927V81.4146H94.9002V78.2927H98.0221ZM98.0221 81.4146V84.5366H94.9002V81.4146H98.0221ZM98.0221 84.5366V87.6585H94.9002V84.5366H98.0221ZM98.0221 87.6585V90.7805H94.9002V87.6585H98.0221ZM98.0221 90.7805V93.9024H94.9002V90.7805H98.0221ZM98.0221 93.9024V97.0244H94.9002V93.9024H98.0221ZM98.0221 97.0244V100.146H94.9002V97.0244H98.0221ZM98.0221 100.146V103.268H94.9002V100.146H98.0221ZM101.144 103.268V106.39H98.0221V103.268H101.144ZM104.266 103.268V106.39H101.144V103.268H104.266ZM104.266 100.146V103.268H101.144V100.146H104.266ZM104.266 97.0244V100.146H101.144V97.0244H104.266ZM104.266 93.9024V97.0244H101.144V93.9024H104.266ZM104.266 90.7805V93.9024H101.144V90.7805H104.266ZM101.144 90.7805V93.9024H98.0221V90.7805H101.144ZM101.144 87.6585V90.7805H98.0221V87.6585H101.144ZM101.144 84.5366V87.6585H98.0221V84.5366H101.144ZM101.144 81.4146V84.5366H98.0221V81.4146H101.144ZM104.266 81.4146V84.5366H101.144V81.4146H104.266ZM104.266 84.5366V87.6585H101.144V84.5366H104.266ZM104.266 87.6585V90.7805H101.144V87.6585H104.266ZM101.144 97.0244V100.146H98.0221V97.0244H101.144ZM101.144 100.146V103.268H98.0221V100.146H101.144ZM101.144 93.9024V97.0244H98.0221V93.9024H101.144ZM129.242 103.268V106.39H126.12V103.268H129.242ZM132.364 103.268V106.39H129.242V103.268H132.364ZM135.486 103.268V106.39H132.364V103.268H135.486ZM138.607 103.268V106.39H135.486V103.268H138.607ZM141.729 103.268V106.39H138.607V103.268H141.729ZM141.729 106.39V109.512H138.607V106.39H141.729ZM138.607 106.39V109.512H135.486V106.39H138.607ZM135.486 106.39V109.512H132.364V106.39H135.486ZM132.364 106.39V109.512H129.242V106.39H132.364ZM129.242 106.39V109.512H126.12V106.39H129.242ZM126.12 106.39V109.512H122.998V106.39H126.12ZM126.12 109.512V112.634H122.998V109.512H126.12ZM129.242 109.512V112.634H126.12V109.512H129.242ZM132.364 109.512V112.634H129.242V109.512H132.364ZM135.486 109.512V112.634H132.364V109.512H135.486ZM135.486 112.634V115.756H132.364V112.634H135.486ZM138.607 112.634V115.756H135.486V112.634H138.607ZM138.607 109.512V112.634H135.486V109.512H138.607ZM135.486 115.756V118.878H132.364V115.756H135.486ZM132.364 115.756V118.878H129.242V115.756H132.364ZM132.364 112.634V115.756H129.242V112.634H132.364ZM129.242 112.634V115.756H126.12V112.634H129.242ZM129.242 115.756V118.878H126.12V115.756H129.242ZM129.242 118.878V122H126.12V118.878H129.242ZM126.12 118.878V122H122.998V118.878H126.12ZM122.998 118.878V122H119.876V118.878H122.998ZM119.876 118.878V122H116.754V118.878H119.876ZM116.754 118.878V122H113.632V118.878H116.754ZM113.632 118.878V122H110.51V118.878H113.632ZM110.51 118.878V122H107.388V118.878H110.51ZM107.388 118.878V122H104.266V118.878H107.388ZM110.51 115.756V118.878H107.388V115.756H110.51ZM113.632 115.756V118.878H110.51V115.756H113.632ZM116.754 115.756V118.878H113.632V115.756H116.754ZM119.876 115.756V118.878H116.754V115.756H119.876ZM122.998 115.756V118.878H119.876V115.756H122.998ZM126.12 115.756V118.878H122.998V115.756H126.12ZM126.12 112.634V115.756H122.998V112.634H126.12ZM122.998 112.634V115.756H119.876V112.634H122.998ZM119.876 112.634V115.756H116.754V112.634H119.876ZM116.754 112.634V115.756H113.632V112.634H116.754ZM113.632 112.634V115.756H110.51V112.634H113.632ZM110.51 112.634V115.756H107.388V112.634H110.51ZM107.388 115.756V118.878H104.266V115.756H107.388ZM104.266 115.756V118.878H101.144V115.756H104.266ZM101.144 115.756V118.878H98.0221V115.756H101.144ZM101.144 112.634V115.756H98.0221V112.634H101.144ZM98.0221 112.634V115.756H94.9002V112.634H98.0221ZM98.0221 109.512V112.634H94.9002V109.512H98.0221ZM101.144 109.512V112.634H98.0221V109.512H101.144ZM104.266 109.512V112.634H101.144V109.512H104.266ZM107.388 109.512V112.634H104.266V109.512H107.388ZM110.51 109.512V112.634H107.388V109.512H110.51ZM113.632 109.512V112.634H110.51V109.512H113.632ZM116.754 109.512V112.634H113.632V109.512H116.754ZM119.876 109.512V112.634H116.754V109.512H119.876ZM122.998 109.512V112.634H119.876V109.512H122.998ZM107.388 112.634V115.756H104.266V112.634H107.388ZM104.266 112.634V115.756H101.144V112.634H104.266ZM141.729 84.5366V87.6585H138.607V84.5366H141.729ZM138.607 84.5366V87.6585H135.486V84.5366H138.607ZM135.486 84.5366V87.6585H132.364V84.5366H135.486ZM132.364 84.5366V87.6585H129.242V84.5366H132.364ZM129.242 84.5366V87.6585H126.12V84.5366H129.242ZM141.729 87.6585V90.7805H138.607V87.6585H141.729ZM135.486 87.6585V90.7805H132.364V87.6585H135.486ZM132.364 87.6585V90.7805H129.242V87.6585H132.364ZM126.12 87.6585V90.7805H122.998V87.6585H126.12ZM122.998 87.6585V90.7805H119.876V87.6585H122.998ZM119.876 87.6585V90.7805H116.754V87.6585H119.876ZM116.754 87.6585V90.7805H113.632V87.6585H116.754ZM113.632 87.6585V90.7805H110.51V87.6585H113.632ZM110.51 87.6585V90.7805H107.388V87.6585H110.51ZM129.242 87.6585V90.7805H126.12V87.6585H129.242ZM138.607 87.6585V90.7805H135.486V87.6585H138.607ZM141.729 90.7805V93.9024H138.607V90.7805H141.729ZM138.607 90.7805V93.9024H135.486V90.7805H138.607ZM135.486 90.7805V93.9024H132.364V90.7805H135.486ZM132.364 90.7805V93.9024H129.242V90.7805H132.364ZM129.242 90.7805V93.9024H126.12V90.7805H129.242ZM126.12 90.7805V93.9024H122.998V90.7805H126.12ZM122.998 90.7805V93.9024H119.876V90.7805H122.998ZM119.876 90.7805V93.9024H116.754V90.7805H119.876ZM116.754 90.7805V93.9024H113.632V90.7805H116.754ZM113.632 90.7805V93.9024H110.51V90.7805H113.632ZM110.51 90.7805V93.9024H107.388V90.7805H110.51ZM110.51 93.9024V97.0244H107.388V93.9024H110.51ZM113.632 93.9024V97.0244H110.51V93.9024H113.632ZM116.754 93.9024V97.0244H113.632V93.9024H116.754ZM122.998 93.9024V97.0244H119.876V93.9024H122.998ZM126.12 93.9024V97.0244H122.998V93.9024H126.12ZM129.242 93.9024V97.0244H126.12V93.9024H129.242ZM132.364 93.9024V97.0244H129.242V93.9024H132.364ZM135.486 93.9024V97.0244H132.364V93.9024H135.486ZM138.607 93.9024V97.0244H135.486V93.9024H138.607ZM141.729 93.9024V97.0244H138.607V93.9024H141.729ZM119.876 93.9024V97.0244H116.754V93.9024H119.876ZM154.272 62.6829V65.8049H151.15V62.6829H154.272ZM157.394 62.6829V65.8049H154.272V62.6829H157.394ZM160.516 62.6829V65.8049H157.394V62.6829H160.516ZM163.638 62.6829V65.8049H160.516V62.6829H163.638ZM163.638 65.8049V68.9268H160.516V65.8049H163.638ZM166.76 65.8049V68.9268H163.638V65.8049H166.76ZM166.76 68.9268V72.0488H163.638V68.9268H166.76ZM166.76 62.6829V65.8049H163.638V62.6829H166.76ZM166.76 72.0488V75.1707H163.638V72.0488H166.76ZM166.76 75.1707V78.2927H163.638V75.1707H166.76ZM166.76 78.2927V81.4146H163.638V78.2927H166.76ZM166.76 81.4146V84.5366H163.638V81.4146H166.76ZM166.76 84.5366V87.6585H163.638V84.5366H166.76ZM166.76 87.6585V90.7805H163.638V87.6585H166.76ZM166.76 90.7805V93.9024H163.638V90.7805H166.76ZM166.76 93.9024V97.0244H163.638V93.9024H166.76ZM166.76 97.0244V100.146H163.638V97.0244H166.76ZM163.638 97.0244V100.146H160.516V97.0244H163.638ZM160.516 100.146V103.268H157.394V100.146H160.516ZM157.394 100.146V103.268H154.272V100.146H157.394ZM154.272 100.146V103.268H151.15V100.146H154.272ZM154.272 97.0244V100.146H151.15V97.0244H154.272ZM154.272 93.9024V97.0244H151.15V93.9024H154.272ZM154.272 90.7805V93.9024H151.15V90.7805H154.272ZM154.272 87.6585V90.7805H151.15V87.6585H154.272ZM157.394 87.6585V90.7805H154.272V87.6585H157.394ZM157.394 84.5366V87.6585H154.272V84.5366H157.394ZM157.394 81.4146V84.5366H154.272V81.4146H157.394ZM157.394 78.2927V81.4146H154.272V78.2927H157.394ZM157.394 75.1707V78.2927H154.272V75.1707H157.394ZM157.394 72.0488V75.1707H154.272V72.0488H157.394ZM157.394 68.9268V72.0488H154.272V68.9268H157.394ZM157.394 65.8049V68.9268H154.272V65.8049H157.394ZM154.272 65.8049V68.9268H151.15V65.8049H154.272ZM154.272 68.9268V72.0488H151.15V68.9268H154.272ZM154.272 72.0488V75.1707H151.15V72.0488H154.272ZM154.272 75.1707V78.2927H151.15V75.1707H154.272ZM154.272 78.2927V81.4146H151.15V78.2927H154.272ZM154.272 81.4146V84.5366H151.15V81.4146H154.272ZM154.272 84.5366V87.6585H151.15V84.5366H154.272ZM160.516 78.2927V81.4146H157.394V78.2927H160.516ZM160.516 75.1707V78.2927H157.394V75.1707H160.516ZM160.516 72.0488V75.1707H157.394V72.0488H160.516ZM160.516 68.9268V72.0488H157.394V68.9268H160.516ZM160.516 65.8049V68.9268H157.394V65.8049H160.516ZM163.638 78.2927V81.4146H160.516V78.2927H163.638ZM163.638 81.4146V84.5366H160.516V81.4146H163.638ZM163.638 75.1707V78.2927H160.516V75.1707H163.638ZM163.638 72.0488V75.1707H160.516V72.0488H163.638ZM163.638 68.9268V72.0488H160.516V68.9268H163.638ZM160.516 87.6585V90.7805H157.394V87.6585H160.516ZM160.516 84.5366V87.6585H157.394V84.5366H160.516ZM160.516 81.4146V84.5366H157.394V81.4146H160.516ZM163.638 84.5366V87.6585H160.516V84.5366H163.638ZM163.638 87.6585V90.7805H160.516V87.6585H163.638ZM163.638 90.7805V93.9024H160.516V90.7805H163.638ZM160.516 93.9024V97.0244H157.394V93.9024H160.516ZM160.516 97.0244V100.146H157.394V97.0244H160.516ZM160.516 90.7805V93.9024H157.394V90.7805H160.516ZM157.394 90.7805V93.9024H154.272V90.7805H157.394ZM157.394 93.9024V97.0244H154.272V93.9024H157.394ZM157.394 97.0244V100.146H154.272V97.0244H157.394ZM163.638 93.9024V97.0244H160.516V93.9024H163.638ZM160.516 103.268V106.39H157.394V103.268H160.516ZM157.394 103.268V106.39H154.272V103.268H157.394ZM163.638 103.268V106.39H160.516V103.268H163.638ZM163.638 100.146V103.268H160.516V100.146H163.638ZM166.76 100.146V103.268H163.638V100.146H166.76ZM169.882 100.146V103.268H166.76V100.146H169.882ZM169.882 103.268V106.39H166.76V103.268H169.882ZM166.76 103.268V106.39H163.638V103.268H166.76ZM173.004 103.268V106.39H169.882V103.268H173.004ZM160.516 106.39V109.512H157.394V106.39H160.516ZM163.638 106.39V109.512H160.516V106.39H163.638ZM166.76 106.39V109.512H163.638V106.39H166.76ZM169.882 106.39V109.512H166.76V106.39H169.882ZM173.004 106.39V109.512H169.882V106.39H173.004ZM176.126 106.39V109.512H173.004V106.39H176.126ZM179.248 106.39V109.512H176.126V106.39H179.248ZM182.37 106.39V109.512H179.248V106.39H182.37ZM185.492 106.39V109.512H182.37V106.39H185.492ZM188.614 106.39V109.512H185.492V106.39H188.614ZM191.736 106.39V109.512H188.614V106.39H191.736ZM194.857 106.39V109.512H191.736V106.39H194.857ZM191.736 103.268V106.39H188.614V103.268H191.736ZM188.614 103.268V106.39H185.492V103.268H188.614ZM185.492 103.268V106.39H182.37V103.268H185.492ZM182.37 103.268V106.39H179.248V103.268H182.37ZM185.492 100.146V103.268H182.37V100.146H185.492ZM188.614 100.146V103.268H185.492V100.146H188.614ZM191.736 100.146V103.268H188.614V100.146H191.736ZM194.857 100.146V103.268H191.736V100.146H194.857ZM197.979 100.146V103.268H194.857V100.146H197.979ZM197.979 103.268V106.39H194.857V103.268H197.979ZM194.857 103.268V106.39H191.736V103.268H194.857ZM201.101 100.146V103.268H197.979V100.146H201.101ZM173.004 118.878V122H169.882V118.878H173.004ZM173.004 115.756V118.878H169.882V115.756H173.004ZM173.004 112.634V115.756H169.882V112.634H173.004ZM176.126 112.634V115.756H173.004V112.634H176.126ZM176.126 109.512V112.634H173.004V109.512H176.126ZM179.248 109.512V112.634H176.126V109.512H179.248ZM182.37 109.512V112.634H179.248V109.512H182.37ZM182.37 112.634V115.756H179.248V112.634H182.37ZM182.37 115.756V118.878H179.248V115.756H182.37ZM182.37 118.878V122H179.248V118.878H182.37ZM179.248 118.878V122H176.126V118.878H179.248ZM176.126 118.878V122H173.004V118.878H176.126ZM176.126 115.756V118.878H173.004V115.756H176.126ZM179.248 112.634V115.756H176.126V112.634H179.248ZM179.248 115.756V118.878H176.126V115.756H179.248ZM185.492 112.634V115.756H182.37V112.634H185.492ZM185.492 109.512V112.634H182.37V109.512H185.492ZM188.614 109.512V112.634H185.492V109.512H188.614ZM191.736 109.512V112.634H188.614V109.512H191.736ZM188.614 112.634V115.756H185.492V112.634H188.614ZM185.492 115.756V118.878H182.37V115.756H185.492ZM163.638 109.512V112.634H160.516V109.512H163.638ZM166.76 109.512V112.634H163.638V109.512H166.76ZM166.76 112.634V115.756H163.638V112.634H166.76ZM169.882 112.634V115.756H166.76V112.634H169.882ZM169.882 115.756V118.878H166.76V115.756H169.882ZM173.004 109.512V112.634H169.882V109.512H173.004ZM169.882 109.512V112.634H166.76V109.512H169.882ZM188.614 97.0244V100.146H185.492V97.0244H188.614ZM188.614 93.9024V97.0244H185.492V93.9024H188.614ZM188.614 90.7805V93.9024H185.492V90.7805H188.614ZM188.614 87.6585V90.7805H185.492V87.6585H188.614ZM191.736 87.6585V90.7805H188.614V87.6585H191.736ZM194.857 87.6585V90.7805H191.736V87.6585H194.857ZM197.979 87.6585V90.7805H194.857V87.6585H197.979ZM201.101 87.6585V90.7805H197.979V87.6585H201.101ZM201.101 90.7805V93.9024H197.979V90.7805H201.101ZM201.101 93.9024V97.0244H197.979V93.9024H201.101ZM201.101 97.0244V100.146H197.979V97.0244H201.101ZM197.979 97.0244V100.146H194.857V97.0244H197.979ZM194.857 97.0244V100.146H191.736V97.0244H194.857ZM191.736 97.0244V100.146H188.614V97.0244H191.736ZM194.857 93.9024V97.0244H191.736V93.9024H194.857ZM197.979 93.9024V97.0244H194.857V93.9024H197.979ZM197.979 90.7805V93.9024H194.857V90.7805H197.979ZM194.857 90.7805V93.9024H191.736V90.7805H194.857ZM191.736 90.7805V93.9024H188.614V90.7805H191.736ZM191.736 93.9024V97.0244H188.614V93.9024H191.736ZM188.614 84.5366V87.6585H185.492V84.5366H188.614ZM188.614 81.4146V84.5366H185.492V81.4146H188.614ZM188.614 78.2927V81.4146H185.492V78.2927H188.614ZM188.614 75.1707V78.2927H185.492V75.1707H188.614ZM188.614 72.0488V75.1707H185.492V72.0488H188.614ZM188.614 68.9268V72.0488H185.492V68.9268H188.614ZM188.614 65.8049V68.9268H185.492V65.8049H188.614ZM188.614 62.6829V65.8049H185.492V62.6829H188.614ZM191.736 65.8049V68.9268H188.614V65.8049H191.736ZM191.736 62.6829V65.8049H188.614V62.6829H191.736ZM194.857 62.6829V65.8049H191.736V62.6829H194.857ZM197.979 62.6829V65.8049H194.857V62.6829H197.979ZM197.979 65.8049V68.9268H194.857V65.8049H197.979ZM197.979 68.9268V72.0488H194.857V68.9268H197.979ZM201.101 68.9268V72.0488H197.979V68.9268H201.101ZM201.101 72.0488V75.1707H197.979V72.0488H201.101ZM201.101 75.1707V78.2927H197.979V75.1707H201.101ZM201.101 78.2927V81.4146H197.979V78.2927H201.101ZM201.101 81.4146V84.5366H197.979V81.4146H201.101ZM201.101 84.5366V87.6585H197.979V84.5366H201.101ZM201.101 65.8049V68.9268H197.979V65.8049H201.101ZM201.101 62.6829V65.8049H197.979V62.6829H201.101ZM194.857 65.8049V68.9268H191.736V65.8049H194.857ZM194.857 68.9268V72.0488H191.736V68.9268H194.857ZM194.857 72.0488V75.1707H191.736V72.0488H194.857ZM194.857 75.1707V78.2927H191.736V75.1707H194.857ZM194.857 78.2927V81.4146H191.736V78.2927H194.857ZM194.857 81.4146V84.5366H191.736V81.4146H194.857ZM191.736 81.4146V84.5366H188.614V81.4146H191.736ZM191.736 84.5366V87.6585H188.614V84.5366H191.736ZM191.736 78.2927V81.4146H188.614V78.2927H191.736ZM191.736 75.1707V78.2927H188.614V75.1707H191.736ZM191.736 72.0488V75.1707H188.614V72.0488H191.736ZM191.736 68.9268V72.0488H188.614V68.9268H191.736ZM197.979 72.0488V75.1707H194.857V72.0488H197.979ZM197.979 75.1707V78.2927H194.857V75.1707H197.979ZM197.979 78.2927V81.4146H194.857V78.2927H197.979ZM197.979 81.4146V84.5366H194.857V81.4146H197.979ZM197.979 84.5366V87.6585H194.857V84.5366H197.979ZM194.857 84.5366V87.6585H191.736V84.5366H194.857Z" fill="#0037FF"/>
<path d="M96.2927 51.9024V54H94.1951V51.9024H96.2927ZM96.2927 49.8049V51.9024H94.1951V49.8049H96.2927ZM96.2927 47.7073V49.8049H94.1951V47.7073H96.2927ZM96.2927 45.6098V47.7073H94.1951V45.6098H96.2927ZM96.2927 43.5122V45.6098H94.1951V43.5122H96.2927ZM96.2927 41.4146V43.5122H94.1951V41.4146H96.2927ZM96.2927 39.3171V41.4146H94.1951V39.3171H96.2927ZM96.2927 37.2195V39.3171H94.1951V37.2195H96.2927ZM96.2927 35.122V37.2195H94.1951V35.122H96.2927ZM96.2927 33.0244V35.122H94.1951V33.0244H96.2927ZM96.2927 30.9268V33.0244H94.1951V30.9268H96.2927ZM96.2927 28.8293V30.9268H94.1951V28.8293H96.2927ZM96.2927 26.7317V28.8293H94.1951V26.7317H96.2927ZM96.2927 24.6341V26.7317H94.1951V24.6341H96.2927ZM96.2927 22.5366V24.6341H94.1951V22.5366H96.2927ZM98.3902 22.5366V24.6341H96.2927V22.5366H98.3902ZM98.3902 24.6341V26.7317H96.2927V24.6341H98.3902ZM98.3902 26.7317V28.8293H96.2927V26.7317H98.3902ZM98.3902 28.8293V30.9268H96.2927V28.8293H98.3902ZM98.3902 30.9268V33.0244H96.2927V30.9268H98.3902ZM98.3902 33.0244V35.122H96.2927V33.0244H98.3902ZM98.3902 35.122V37.2195H96.2927V35.122H98.3902ZM100.488 37.2195V39.3171H98.3902V37.2195H100.488ZM100.488 39.3171V41.4146H98.3902V39.3171H100.488ZM100.488 41.4146V43.5122H98.3902V41.4146H100.488ZM100.488 43.5122V45.6098H98.3902V43.5122H100.488ZM100.488 45.6098V47.7073H98.3902V45.6098H100.488ZM100.488 47.7073V49.8049H98.3902V47.7073H100.488ZM100.488 49.8049V51.9024H98.3902V49.8049H100.488ZM100.488 51.9024V54H98.3902V51.9024H100.488ZM102.585 51.9024V54H100.488V51.9024H102.585ZM104.683 51.9024V54H102.585V51.9024H104.683ZM104.683 49.8049V51.9024H102.585V49.8049H104.683ZM104.683 47.7073V49.8049H102.585V47.7073H104.683ZM104.683 45.6098V47.7073H102.585V45.6098H104.683ZM104.683 43.5122V45.6098H102.585V43.5122H104.683ZM104.683 41.4146V43.5122H102.585V41.4146H104.683ZM104.683 39.3171V41.4146H102.585V39.3171H104.683ZM104.683 37.2195V39.3171H102.585V37.2195H104.683ZM102.585 37.2195V39.3171H100.488V37.2195H102.585ZM102.585 35.122V37.2195H100.488V35.122H102.585ZM102.585 39.3171V41.4146H100.488V39.3171H102.585ZM102.585 41.4146V43.5122H100.488V41.4146H102.585ZM102.585 43.5122V45.6098H100.488V43.5122H102.585ZM102.585 45.6098V47.7073H100.488V45.6098H102.585ZM102.585 47.7073V49.8049H100.488V47.7073H102.585ZM102.585 49.8049V51.9024H100.488V49.8049H102.585ZM98.3902 51.9024V54H96.2927V51.9024H98.3902ZM98.3902 49.8049V51.9024H96.2927V49.8049H98.3902ZM98.3902 47.7073V49.8049H96.2927V47.7073H98.3902ZM98.3902 45.6098V47.7073H96.2927V45.6098H98.3902ZM98.3902 43.5122V45.6098H96.2927V43.5122H98.3902ZM98.3902 41.4146V43.5122H96.2927V41.4146H98.3902ZM98.3902 39.3171V41.4146H96.2927V39.3171H98.3902ZM98.3902 37.2195V39.3171H96.2927V37.2195H98.3902ZM96.2927 1.56097V3.65854H94.1951V1.56097H96.2927ZM96.2927 3.65854V5.7561H94.1951V3.65854H96.2927ZM96.2927 5.7561V7.85366H94.1951V5.7561H96.2927ZM96.2927 7.85366V9.95122H94.1951V7.85366H96.2927ZM96.2927 9.95122V12.0488H94.1951V9.95122H96.2927ZM96.2927 12.0488V14.1463H94.1951V12.0488H96.2927ZM96.2927 14.1463V16.2439H94.1951V14.1463H96.2927ZM96.2927 16.2439V18.3415H94.1951V16.2439H96.2927ZM96.2927 18.3415V20.439H94.1951V18.3415H96.2927ZM96.2927 20.439V22.5366H94.1951V20.439H96.2927ZM102.585 1.56097V3.65854H100.488V1.56097H102.585ZM102.585 3.65854V5.7561H100.488V3.65854H102.585ZM102.585 5.7561V7.85366H100.488V5.7561H102.585ZM102.585 7.85366V9.95122H100.488V7.85366H102.585ZM102.585 9.95122V12.0488H100.488V9.95122H102.585ZM102.585 12.0488V14.1463H100.488V12.0488H102.585ZM102.585 16.2439V18.3415H100.488V16.2439H102.585ZM102.585 18.3415V20.439H100.488V18.3415H102.585ZM102.585 20.439V22.5366H100.488V20.439H102.585ZM102.585 22.5366V24.6341H100.488V22.5366H102.585ZM102.585 24.6341V26.7317H100.488V24.6341H102.585ZM102.585 26.7317V28.8293H100.488V26.7317H102.585ZM102.585 28.8293V30.9268H100.488V28.8293H102.585ZM104.683 30.9268V33.0244H102.585V30.9268H104.683ZM104.683 33.0244V35.122H102.585V33.0244H104.683ZM104.683 35.122V37.2195H102.585V35.122H104.683ZM104.683 28.8293V30.9268H102.585V28.8293H104.683ZM104.683 26.7317V28.8293H102.585V26.7317H104.683ZM104.683 24.6341V26.7317H102.585V24.6341H104.683ZM104.683 22.5366V24.6341H102.585V22.5366H104.683ZM104.683 20.439V22.5366H102.585V20.439H104.683ZM104.683 18.3415V20.439H102.585V18.3415H104.683ZM104.683 16.2439V18.3415H102.585V16.2439H104.683ZM104.683 14.1463V16.2439H102.585V14.1463H104.683ZM104.683 12.0488V14.1463H102.585V12.0488H104.683ZM104.683 9.95122V12.0488H102.585V9.95122H104.683ZM102.585 14.1463V16.2439H100.488V14.1463H102.585ZM104.683 7.85366V9.95122H102.585V7.85366H104.683ZM104.683 5.7561V7.85366H102.585V5.7561H104.683ZM104.683 3.65854V5.7561H102.585V3.65854H104.683ZM104.683 1.56097V3.65854H102.585V1.56097H104.683ZM100.488 1.56097V3.65854H98.3902V1.56097H100.488ZM98.3902 1.56097V3.65854H96.2927V1.56097H98.3902ZM98.3902 3.65854V5.7561H96.2927V3.65854H98.3902ZM100.488 3.65854V5.7561H98.3902V3.65854H100.488ZM100.488 5.7561V7.85366H98.3902V5.7561H100.488ZM100.488 7.85366V9.95122H98.3902V7.85366H100.488ZM100.488 9.95122V12.0488H98.3902V9.95122H100.488ZM100.488 12.0488V14.1463H98.3902V12.0488H100.488ZM100.488 14.1463V16.2439H98.3902V14.1463H100.488ZM100.488 16.2439V18.3415H98.3902V16.2439H100.488ZM98.3902 18.3415V20.439H96.2927V18.3415H98.3902ZM98.3902 20.439V22.5366H96.2927V20.439H98.3902ZM98.3902 16.2439V18.3415H96.2927V16.2439H98.3902ZM98.3902 14.1463V16.2439H96.2927V14.1463H98.3902ZM98.3902 12.0488V14.1463H96.2927V12.0488H98.3902ZM98.3902 9.95122V12.0488H96.2927V9.95122H98.3902ZM98.3902 7.85366V9.95122H96.2927V7.85366H98.3902ZM98.3902 5.7561V7.85366H96.2927V5.7561H98.3902ZM100.488 18.3415V20.439H98.3902V18.3415H100.488ZM100.488 20.439V22.5366H98.3902V20.439H100.488ZM100.488 22.5366V24.6341H98.3902V22.5366H100.488ZM100.488 24.6341V26.7317H98.3902V24.6341H100.488ZM100.488 26.7317V28.8293H98.3902V26.7317H100.488ZM100.488 28.8293V30.9268H98.3902V28.8293H100.488ZM100.488 30.9268V33.0244H98.3902V30.9268H100.488ZM100.488 33.0244V35.122H98.3902V33.0244H100.488ZM100.488 35.122V37.2195H98.3902V35.122H100.488ZM102.585 33.0244V35.122H100.488V33.0244H102.585ZM102.585 30.9268V33.0244H100.488V30.9268H102.585ZM106.78 26.7317V28.8293H104.683V26.7317H106.78ZM108.878 26.7317V28.8293H106.78V26.7317H108.878ZM110.976 26.7317V28.8293H108.878V26.7317H110.976ZM110.976 28.8293V30.9268H108.878V28.8293H110.976ZM108.878 28.8293V30.9268H106.78V28.8293H108.878ZM106.78 28.8293V30.9268H104.683V28.8293H106.78ZM106.78 22.5366V24.6341H104.683V22.5366H106.78ZM108.878 22.5366V24.6341H106.78V22.5366H108.878ZM110.976 22.5366V24.6341H108.878V22.5366H110.976ZM110.976 24.6341V26.7317H108.878V24.6341H110.976ZM106.78 30.9268V33.0244H104.683V30.9268H106.78ZM108.878 30.9268V33.0244H106.78V30.9268H108.878ZM110.976 30.9268V33.0244H108.878V30.9268H110.976ZM108.878 24.6341V26.7317H106.78V24.6341H108.878ZM106.78 24.6341V26.7317H104.683V24.6341H106.78ZM113.073 22.5366V24.6341H110.976V22.5366H113.073ZM115.171 22.5366V24.6341H113.073V22.5366H115.171ZM117.268 22.5366V24.6341H115.171V22.5366H117.268ZM117.268 24.6341V26.7317H115.171V24.6341H117.268ZM117.268 26.7317V28.8293H115.171V26.7317H117.268ZM117.268 28.8293V30.9268H115.171V28.8293H117.268ZM117.268 30.9268V33.0244H115.171V30.9268H117.268ZM115.171 30.9268V33.0244H113.073V30.9268H115.171ZM113.073 30.9268V33.0244H110.976V30.9268H113.073ZM113.073 28.8293V30.9268H110.976V28.8293H113.073ZM113.073 26.7317V28.8293H110.976V26.7317H113.073ZM113.073 24.6341V26.7317H110.976V24.6341H113.073ZM115.171 24.6341V26.7317H113.073V24.6341H115.171ZM115.171 26.7317V28.8293H113.073V26.7317H115.171ZM115.171 28.8293V30.9268H113.073V28.8293H115.171ZM113.073 20.439V22.5366H110.976V20.439H113.073ZM113.073 33.0244V35.122H110.976V33.0244H113.073ZM115.171 18.3415V20.439H113.073V18.3415H115.171ZM115.171 20.439V22.5366H113.073V20.439H115.171ZM115.171 35.122V37.2195H113.073V35.122H115.171ZM115.171 33.0244V35.122H113.073V33.0244H115.171ZM119.366 22.5366V24.6341H117.268V22.5366H119.366ZM119.366 24.6341V26.7317H117.268V24.6341H119.366ZM119.366 30.9268V33.0244H117.268V30.9268H119.366ZM119.366 28.8293V30.9268H117.268V28.8293H119.366ZM121.463 30.9268V33.0244H119.366V30.9268H121.463ZM121.463 22.5366V24.6341H119.366V22.5366H121.463ZM117.268 16.2439V18.3415H115.171V16.2439H117.268ZM117.268 18.3415V20.439H115.171V18.3415H117.268ZM117.268 20.439V22.5366H115.171V20.439H117.268ZM117.268 37.2195V39.3171H115.171V37.2195H117.268ZM117.268 35.122V37.2195H115.171V35.122H117.268ZM117.268 33.0244V35.122H115.171V33.0244H117.268ZM117.268 14.1463V16.2439H115.171V14.1463H117.268ZM117.268 12.0488V14.1463H115.171V12.0488H117.268ZM117.268 9.95122V12.0488H115.171V9.95122H117.268ZM117.268 39.3171V41.4146H115.171V39.3171H117.268ZM117.268 41.4146V43.5122H115.171V41.4146H117.268ZM117.268 43.5122V45.6098H115.171V43.5122H117.268ZM123.561 33.0244V35.122H121.463V33.0244H123.561ZM121.463 33.0244V35.122H119.366V33.0244H121.463ZM119.366 33.0244V35.122H117.268V33.0244H119.366ZM119.366 20.439V22.5366H117.268V20.439H119.366ZM121.463 20.439V22.5366H119.366V20.439H121.463ZM123.561 20.439V22.5366H121.463V20.439H123.561ZM125.659 18.3415V20.439H123.561V18.3415H125.659ZM123.561 18.3415V20.439H121.463V18.3415H123.561ZM121.463 18.3415V20.439H119.366V18.3415H121.463ZM119.366 18.3415V20.439H117.268V18.3415H119.366ZM119.366 35.122V37.2195H117.268V35.122H119.366ZM121.463 35.122V37.2195H119.366V35.122H121.463ZM123.561 35.122V37.2195H121.463V35.122H123.561ZM125.659 35.122V37.2195H123.561V35.122H125.659ZM125.659 16.2439V18.3415H123.561V16.2439H125.659ZM125.659 14.1463V16.2439H123.561V14.1463H125.659ZM125.659 12.0488V14.1463H123.561V12.0488H125.659ZM125.659 9.95122V12.0488H123.561V9.95122H125.659ZM123.561 9.95122V12.0488H121.463V9.95122H123.561ZM121.463 9.95122V12.0488H119.366V9.95122H121.463ZM119.366 9.95122V12.0488H117.268V9.95122H119.366ZM119.366 12.0488V14.1463H117.268V12.0488H119.366ZM121.463 12.0488V14.1463H119.366V12.0488H121.463ZM123.561 12.0488V14.1463H121.463V12.0488H123.561ZM123.561 14.1463V16.2439H121.463V14.1463H123.561ZM121.463 14.1463V16.2439H119.366V14.1463H121.463ZM119.366 14.1463V16.2439H117.268V14.1463H119.366ZM119.366 16.2439V18.3415H117.268V16.2439H119.366ZM121.463 16.2439V18.3415H119.366V16.2439H121.463ZM123.561 16.2439V18.3415H121.463V16.2439H123.561ZM125.659 37.2195V39.3171H123.561V37.2195H125.659ZM125.659 39.3171V41.4146H123.561V39.3171H125.659ZM125.659 41.4146V43.5122H123.561V41.4146H125.659ZM125.659 43.5122V45.6098H123.561V43.5122H125.659ZM125.659 45.6098V47.7073H123.561V45.6098H125.659ZM123.561 43.5122V45.6098H121.463V43.5122H123.561ZM123.561 45.6098V47.7073H121.463V45.6098H123.561ZM121.463 45.6098V47.7073H119.366V45.6098H121.463ZM119.366 45.6098V47.7073H117.268V45.6098H119.366ZM119.366 43.5122V45.6098H117.268V43.5122H119.366ZM121.463 43.5122V45.6098H119.366V43.5122H121.463ZM121.463 41.4146V43.5122H119.366V41.4146H121.463ZM121.463 39.3171V41.4146H119.366V39.3171H121.463ZM119.366 39.3171V41.4146H117.268V39.3171H119.366ZM119.366 37.2195V39.3171H117.268V37.2195H119.366ZM121.463 37.2195V39.3171H119.366V37.2195H121.463ZM123.561 39.3171V41.4146H121.463V39.3171H123.561ZM123.561 41.4146V43.5122H121.463V41.4146H123.561ZM123.561 37.2195V39.3171H121.463V37.2195H123.561ZM119.366 41.4146V43.5122H117.268V41.4146H119.366ZM117.268 45.6098V47.7073H115.171V45.6098H117.268ZM117.268 47.7073V49.8049H115.171V47.7073H117.268ZM117.268 49.8049V51.9024H115.171V49.8049H117.268ZM117.268 51.9024V54H115.171V51.9024H117.268ZM119.366 51.9024V54H117.268V51.9024H119.366ZM121.463 51.9024V54H119.366V51.9024H121.463ZM123.561 51.9024V54H121.463V51.9024H123.561ZM125.659 51.9024V54H123.561V51.9024H125.659ZM125.659 49.8049V51.9024H123.561V49.8049H125.659ZM125.659 47.7073V49.8049H123.561V47.7073H125.659ZM123.561 47.7073V49.8049H121.463V47.7073H123.561ZM121.463 47.7073V49.8049H119.366V47.7073H121.463ZM119.366 47.7073V49.8049H117.268V47.7073H119.366ZM119.366 49.8049V51.9024H117.268V49.8049H119.366ZM121.463 49.8049V51.9024H119.366V49.8049H121.463ZM123.561 49.8049V51.9024H121.463V49.8049H123.561ZM117.268 1.56097V3.65854H115.171V1.56097H117.268ZM119.366 1.56097V3.65854H117.268V1.56097H119.366ZM121.463 1.56097V3.65854H119.366V1.56097H121.463ZM123.561 1.56097V3.65854H121.463V1.56097H123.561ZM125.659 1.56097V3.65854H123.561V1.56097H125.659ZM125.659 3.65854V5.7561H123.561V3.65854H125.659ZM125.659 5.7561V7.85366H123.561V5.7561H125.659ZM125.659 7.85366V9.95122H123.561V7.85366H125.659ZM123.561 7.85366V9.95122H121.463V7.85366H123.561ZM121.463 7.85366V9.95122H119.366V7.85366H121.463ZM119.366 7.85366V9.95122H117.268V7.85366H119.366ZM117.268 7.85366V9.95122H115.171V7.85366H117.268ZM117.268 5.7561V7.85366H115.171V5.7561H117.268ZM117.268 3.65854V5.7561H115.171V3.65854H117.268ZM119.366 3.65854V5.7561H117.268V3.65854H119.366ZM121.463 3.65854V5.7561H119.366V3.65854H121.463ZM123.561 3.65854V5.7561H121.463V3.65854H123.561ZM123.561 5.7561V7.85366H121.463V5.7561H123.561ZM121.463 5.7561V7.85366H119.366V5.7561H121.463ZM119.366 5.7561V7.85366H117.268V5.7561H119.366ZM136.185 1.56097V3.65854H134.088V1.56097H136.185ZM136.185 3.65854V5.7561H134.088V3.65854H136.185ZM136.185 5.7561V7.85366H134.088V5.7561H136.185ZM142.478 1.56097V3.65854H140.38V1.56097H142.478ZM142.478 3.65854V5.7561H140.38V3.65854H142.478ZM142.478 5.7561V7.85366H140.38V5.7561H142.478ZM144.576 5.7561V7.85366H142.478V5.7561H144.576ZM144.576 3.65854V5.7561H142.478V3.65854H144.576ZM144.576 1.56097V3.65854H142.478V1.56097H144.576ZM140.38 1.56097V3.65854H138.283V1.56097H140.38ZM138.283 1.56097V3.65854H136.185V1.56097H138.283ZM138.283 3.65854V5.7561H136.185V3.65854H138.283ZM140.38 3.65854V5.7561H138.283V3.65854H140.38ZM140.38 5.7561V7.85366H138.283V5.7561H140.38ZM138.283 5.7561V7.85366H136.185V5.7561H138.283ZM136.185 7.85366V9.95122H134.088V7.85366H136.185ZM138.283 7.85366V9.95122H136.185V7.85366H138.283ZM140.38 7.85366V9.95122H138.283V7.85366H140.38ZM142.478 7.85366V9.95122H140.38V7.85366H142.478ZM144.576 7.85366V9.95122H142.478V7.85366H144.576ZM136.185 51.9024V54H134.088V51.9024H136.185ZM136.185 49.8049V51.9024H134.088V49.8049H136.185ZM136.185 47.7073V49.8049H134.088V47.7073H136.185ZM136.185 45.6098V47.7073H134.088V45.6098H136.185ZM136.185 43.5122V45.6098H134.088V43.5122H136.185ZM136.185 41.4146V43.5122H134.088V41.4146H136.185ZM136.185 39.3171V41.4146H134.088V39.3171H136.185ZM136.185 37.2195V39.3171H134.088V37.2195H136.185ZM136.185 35.122V37.2195H134.088V35.122H136.185ZM136.185 33.0244V35.122H134.088V33.0244H136.185ZM136.185 30.9268V33.0244H134.088V30.9268H136.185ZM136.185 28.8293V30.9268H134.088V28.8293H136.185ZM136.185 26.7317V28.8293H134.088V26.7317H136.185ZM136.185 24.6341V26.7317H134.088V24.6341H136.185ZM136.185 22.5366V24.6341H134.088V22.5366H136.185ZM138.283 22.5366V24.6341H136.185V22.5366H138.283ZM138.283 24.6341V26.7317H136.185V24.6341H138.283ZM138.283 26.7317V28.8293H136.185V26.7317H138.283ZM138.283 28.8293V30.9268H136.185V28.8293H138.283ZM138.283 30.9268V33.0244H136.185V30.9268H138.283ZM138.283 33.0244V35.122H136.185V33.0244H138.283ZM138.283 35.122V37.2195H136.185V35.122H138.283ZM140.38 37.2195V39.3171H138.283V37.2195H140.38ZM140.38 39.3171V41.4146H138.283V39.3171H140.38ZM140.38 41.4146V43.5122H138.283V41.4146H140.38ZM140.38 43.5122V45.6098H138.283V43.5122H140.38ZM140.38 45.6098V47.7073H138.283V45.6098H140.38ZM140.38 47.7073V49.8049H138.283V47.7073H140.38ZM140.38 49.8049V51.9024H138.283V49.8049H140.38ZM140.38 51.9024V54H138.283V51.9024H140.38ZM142.478 51.9024V54H140.38V51.9024H142.478ZM144.576 51.9024V54H142.478V51.9024H144.576ZM144.576 49.8049V51.9024H142.478V49.8049H144.576ZM144.576 47.7073V49.8049H142.478V47.7073H144.576ZM144.576 45.6098V47.7073H142.478V45.6098H144.576ZM144.576 43.5122V45.6098H142.478V43.5122H144.576ZM144.576 41.4146V43.5122H142.478V41.4146H144.576ZM144.576 39.3171V41.4146H142.478V39.3171H144.576ZM144.576 37.2195V39.3171H142.478V37.2195H144.576ZM142.478 37.2195V39.3171H140.38V37.2195H142.478ZM142.478 35.122V37.2195H140.38V35.122H142.478ZM142.478 39.3171V41.4146H140.38V39.3171H142.478ZM142.478 41.4146V43.5122H140.38V41.4146H142.478ZM142.478 43.5122V45.6098H140.38V43.5122H142.478ZM142.478 45.6098V47.7073H140.38V45.6098H142.478ZM142.478 47.7073V49.8049H140.38V47.7073H142.478ZM142.478 49.8049V51.9024H140.38V49.8049H142.478ZM138.283 51.9024V54H136.185V51.9024H138.283ZM138.283 49.8049V51.9024H136.185V49.8049H138.283ZM138.283 47.7073V49.8049H136.185V47.7073H138.283ZM138.283 45.6098V47.7073H136.185V45.6098H138.283ZM138.283 43.5122V45.6098H136.185V43.5122H138.283ZM138.283 41.4146V43.5122H136.185V41.4146H138.283ZM138.283 39.3171V41.4146H136.185V39.3171H138.283ZM138.283 37.2195V39.3171H136.185V37.2195H138.283ZM136.185 18.3415V20.439H134.088V18.3415H136.185ZM136.185 20.439V22.5366H134.088V20.439H136.185ZM142.478 18.3415V20.439H140.38V18.3415H142.478ZM142.478 20.439V22.5366H140.38V20.439H142.478ZM142.478 22.5366V24.6341H140.38V22.5366H142.478ZM142.478 24.6341V26.7317H140.38V24.6341H142.478ZM142.478 26.7317V28.8293H140.38V26.7317H142.478ZM142.478 28.8293V30.9268H140.38V28.8293H142.478ZM144.576 30.9268V33.0244H142.478V30.9268H144.576ZM144.576 33.0244V35.122H142.478V33.0244H144.576ZM144.576 35.122V37.2195H142.478V35.122H144.576ZM144.576 28.8293V30.9268H142.478V28.8293H144.576ZM144.576 26.7317V28.8293H142.478V26.7317H144.576ZM144.576 24.6341V26.7317H142.478V24.6341H144.576ZM144.576 22.5366V24.6341H142.478V22.5366H144.576ZM144.576 20.439V22.5366H142.478V20.439H144.576ZM144.576 18.3415V20.439H142.478V18.3415H144.576ZM138.283 18.3415V20.439H136.185V18.3415H138.283ZM138.283 20.439V22.5366H136.185V20.439H138.283ZM140.38 18.3415V20.439H138.283V18.3415H140.38ZM140.38 20.439V22.5366H138.283V20.439H140.38ZM140.38 22.5366V24.6341H138.283V22.5366H140.38ZM140.38 24.6341V26.7317H138.283V24.6341H140.38ZM140.38 26.7317V28.8293H138.283V26.7317H140.38ZM140.38 28.8293V30.9268H138.283V28.8293H140.38ZM140.38 30.9268V33.0244H138.283V30.9268H140.38ZM140.38 33.0244V35.122H138.283V33.0244H140.38ZM140.38 35.122V37.2195H138.283V35.122H140.38ZM142.478 33.0244V35.122H140.38V33.0244H142.478ZM142.478 30.9268V33.0244H140.38V30.9268H142.478ZM142.478 16.2439V18.3415H140.38V16.2439H142.478ZM144.576 16.2439V18.3415H142.478V16.2439H144.576ZM140.38 16.2439V18.3415H138.283V16.2439H140.38ZM138.283 16.2439V18.3415H136.185V16.2439H138.283ZM136.185 16.2439V18.3415H134.088V16.2439H136.185ZM155.082 51.9024V54H152.984V51.9024H155.082ZM155.082 49.8049V51.9024H152.984V49.8049H155.082ZM155.082 47.7073V49.8049H152.984V47.7073H155.082ZM155.082 45.6098V47.7073H152.984V45.6098H155.082ZM155.082 43.5122V45.6098H152.984V43.5122H155.082ZM155.082 41.4146V43.5122H152.984V41.4146H155.082ZM155.082 39.3171V41.4146H152.984V39.3171H155.082ZM155.082 37.2195V39.3171H152.984V37.2195H155.082ZM155.082 35.122V37.2195H152.984V35.122H155.082ZM155.082 33.0244V35.122H152.984V33.0244H155.082ZM155.082 30.9268V33.0244H152.984V30.9268H155.082ZM155.082 28.8293V30.9268H152.984V28.8293H155.082ZM155.082 26.7317V28.8293H152.984V26.7317H155.082ZM155.082 24.6341V26.7317H152.984V24.6341H155.082ZM155.082 22.5366V24.6341H152.984V22.5366H155.082ZM157.179 22.5366V24.6341H155.082V22.5366H157.179ZM157.179 24.6341V26.7317H155.082V24.6341H157.179ZM157.179 26.7317V28.8293H155.082V26.7317H157.179ZM157.179 28.8293V30.9268H155.082V28.8293H157.179ZM157.179 30.9268V33.0244H155.082V30.9268H157.179ZM157.179 33.0244V35.122H155.082V33.0244H157.179ZM157.179 35.122V37.2195H155.082V35.122H157.179ZM159.277 37.2195V39.3171H157.179V37.2195H159.277ZM159.277 39.3171V41.4146H157.179V39.3171H159.277ZM159.277 41.4146V43.5122H157.179V41.4146H159.277ZM159.277 43.5122V45.6098H157.179V43.5122H159.277ZM159.277 45.6098V47.7073H157.179V45.6098H159.277ZM159.277 47.7073V49.8049H157.179V47.7073H159.277ZM159.277 49.8049V51.9024H157.179V49.8049H159.277ZM159.277 51.9024V54H157.179V51.9024H159.277ZM161.374 51.9024V54H159.277V51.9024H161.374ZM163.472 51.9024V54H161.374V51.9024H163.472ZM163.472 49.8049V51.9024H161.374V49.8049H163.472ZM163.472 47.7073V49.8049H161.374V47.7073H163.472ZM163.472 45.6098V47.7073H161.374V45.6098H163.472ZM163.472 43.5122V45.6098H161.374V43.5122H163.472ZM163.472 41.4146V43.5122H161.374V41.4146H163.472ZM163.472 39.3171V41.4146H161.374V39.3171H163.472ZM163.472 37.2195V39.3171H161.374V37.2195H163.472ZM161.374 37.2195V39.3171H159.277V37.2195H161.374ZM161.374 35.122V37.2195H159.277V35.122H161.374ZM161.374 39.3171V41.4146H159.277V39.3171H161.374ZM161.374 41.4146V43.5122H159.277V41.4146H161.374ZM161.374 43.5122V45.6098H159.277V43.5122H161.374ZM161.374 45.6098V47.7073H159.277V45.6098H161.374ZM161.374 47.7073V49.8049H159.277V47.7073H161.374ZM161.374 49.8049V51.9024H159.277V49.8049H161.374ZM157.179 51.9024V54H155.082V51.9024H157.179ZM157.179 49.8049V51.9024H155.082V49.8049H157.179ZM157.179 47.7073V49.8049H155.082V47.7073H157.179ZM157.179 45.6098V47.7073H155.082V45.6098H157.179ZM157.179 43.5122V45.6098H155.082V43.5122H157.179ZM157.179 41.4146V43.5122H155.082V41.4146H157.179ZM157.179 39.3171V41.4146H155.082V39.3171H157.179ZM157.179 37.2195V39.3171H155.082V37.2195H157.179ZM155.082 14.1463V16.2439H152.984V14.1463H155.082ZM155.082 16.2439V18.3415H152.984V16.2439H155.082ZM155.082 18.3415V20.439H152.984V18.3415H155.082ZM155.082 20.439V22.5366H152.984V20.439H155.082ZM161.374 16.2439V18.3415H159.277V16.2439H161.374ZM161.374 18.3415V20.439H159.277V18.3415H161.374ZM161.374 20.439V22.5366H159.277V20.439H161.374ZM161.374 22.5366V24.6341H159.277V22.5366H161.374ZM161.374 24.6341V26.7317H159.277V24.6341H161.374ZM161.374 26.7317V28.8293H159.277V26.7317H161.374ZM161.374 28.8293V30.9268H159.277V28.8293H161.374ZM163.472 30.9268V33.0244H161.374V30.9268H163.472ZM163.472 33.0244V35.122H161.374V33.0244H163.472ZM163.472 35.122V37.2195H161.374V35.122H163.472ZM163.472 28.8293V30.9268H161.374V28.8293H163.472ZM163.472 26.7317V28.8293H161.374V26.7317H163.472ZM163.472 24.6341V26.7317H161.374V24.6341H163.472ZM163.472 22.5366V24.6341H161.374V22.5366H163.472ZM163.472 20.439V22.5366H161.374V20.439H163.472ZM163.472 18.3415V20.439H161.374V18.3415H163.472ZM163.472 16.2439V18.3415H161.374V16.2439H163.472ZM163.472 14.1463V16.2439H161.374V14.1463H163.472ZM161.374 14.1463V16.2439H159.277V14.1463H161.374ZM159.277 14.1463V16.2439H157.179V14.1463H159.277ZM159.277 16.2439V18.3415H157.179V16.2439H159.277ZM157.179 18.3415V20.439H155.082V18.3415H157.179ZM157.179 20.439V22.5366H155.082V20.439H157.179ZM157.179 16.2439V18.3415H155.082V16.2439H157.179ZM157.179 14.1463V16.2439H155.082V14.1463H157.179ZM159.277 18.3415V20.439H157.179V18.3415H159.277ZM159.277 20.439V22.5366H157.179V20.439H159.277ZM159.277 22.5366V24.6341H157.179V22.5366H159.277ZM159.277 24.6341V26.7317H157.179V24.6341H159.277ZM159.277 26.7317V28.8293H157.179V26.7317H159.277ZM159.277 28.8293V30.9268H157.179V28.8293H159.277ZM159.277 30.9268V33.0244H157.179V30.9268H159.277ZM159.277 33.0244V35.122H157.179V33.0244H159.277ZM159.277 35.122V37.2195H157.179V35.122H159.277ZM161.374 33.0244V35.122H159.277V33.0244H161.374ZM161.374 30.9268V33.0244H159.277V30.9268H161.374ZM173.96 51.9024V54H171.862V51.9024H173.96ZM176.057 51.9024V54H173.96V51.9024H176.057ZM178.155 51.9024V54H176.057V51.9024H178.155ZM180.252 51.9024V54H178.155V51.9024H180.252ZM182.35 49.8049V51.9024H180.252V49.8049H182.35ZM182.35 47.7073V49.8049H180.252V47.7073H182.35ZM182.35 51.9024V54H180.252V51.9024H182.35ZM180.252 49.8049V51.9024H178.155V49.8049H180.252ZM178.155 49.8049V51.9024H176.057V49.8049H178.155ZM176.057 49.8049V51.9024H173.96V49.8049H176.057ZM173.96 49.8049V51.9024H171.862V49.8049H173.96ZM173.96 47.7073V49.8049H171.862V47.7073H173.96ZM173.96 45.6098V47.7073H171.862V45.6098H173.96ZM176.057 45.6098V47.7073H173.96V45.6098H176.057ZM178.155 45.6098V47.7073H176.057V45.6098H178.155ZM180.252 45.6098V47.7073H178.155V45.6098H180.252ZM182.35 45.6098V47.7073H180.252V45.6098H182.35ZM180.252 47.7073V49.8049H178.155V47.7073H180.252ZM178.155 47.7073V49.8049H176.057V47.7073H178.155ZM176.057 47.7073V49.8049H173.96V47.7073H176.057ZM180.252 22.5366V24.6341H178.155V22.5366H180.252ZM176.057 22.5366V24.6341H173.96V22.5366H176.057ZM176.057 24.6341V26.7317H173.96V24.6341H176.057ZM176.057 26.7317V28.8293H173.96V26.7317H176.057ZM173.96 28.8293V30.9268H171.862V28.8293H173.96ZM173.96 30.9268V33.0244H171.862V30.9268H173.96ZM173.96 33.0244V35.122H171.862V33.0244H173.96ZM173.96 35.122V37.2195H171.862V35.122H173.96ZM173.96 37.2195V39.3171H171.862V37.2195H173.96ZM173.96 39.3171V41.4146H171.862V39.3171H173.96ZM173.96 41.4146V43.5122H171.862V41.4146H173.96ZM173.96 43.5122V45.6098H171.862V43.5122H173.96ZM176.057 43.5122V45.6098H173.96V43.5122H176.057ZM178.155 43.5122V45.6098H176.057V43.5122H178.155ZM180.252 43.5122V45.6098H178.155V43.5122H180.252ZM182.35 43.5122V45.6098H180.252V43.5122H182.35ZM182.35 41.4146V43.5122H180.252V41.4146H182.35ZM182.35 37.2195V39.3171H180.252V37.2195H182.35ZM182.35 35.122V37.2195H180.252V35.122H182.35ZM182.35 33.0244V35.122H180.252V33.0244H182.35ZM182.35 30.9268V33.0244H180.252V30.9268H182.35ZM182.35 28.8293V30.9268H180.252V28.8293H182.35ZM182.35 26.7317V28.8293H180.252V26.7317H182.35ZM180.252 33.0244V35.122H178.155V33.0244H180.252ZM180.252 37.2195V39.3171H178.155V37.2195H180.252ZM180.252 39.3171V41.4146H178.155V39.3171H180.252ZM180.252 41.4146V43.5122H178.155V41.4146H180.252ZM182.35 39.3171V41.4146H180.252V39.3171H182.35ZM180.252 28.8293V30.9268H178.155V28.8293H180.252ZM178.155 28.8293V30.9268H176.057V28.8293H178.155ZM176.057 28.8293V30.9268H173.96V28.8293H176.057ZM176.057 30.9268V33.0244H173.96V30.9268H176.057ZM176.057 33.0244V35.122H173.96V33.0244H176.057ZM176.057 35.122V37.2195H173.96V35.122H176.057ZM176.057 37.2195V39.3171H173.96V37.2195H176.057ZM176.057 39.3171V41.4146H173.96V39.3171H176.057ZM176.057 41.4146V43.5122H173.96V41.4146H176.057ZM178.155 41.4146V43.5122H176.057V41.4146H178.155ZM178.155 39.3171V41.4146H176.057V39.3171H178.155ZM178.155 37.2195V39.3171H176.057V37.2195H178.155ZM178.155 35.122V37.2195H176.057V35.122H178.155ZM178.155 33.0244V35.122H176.057V33.0244H178.155ZM178.155 30.9268V33.0244H176.057V30.9268H178.155ZM180.252 30.9268V33.0244H178.155V30.9268H180.252ZM180.252 35.122V37.2195H178.155V35.122H180.252ZM180.252 26.7317V28.8293H178.155V26.7317H180.252ZM180.252 24.6341V26.7317H178.155V24.6341H180.252ZM178.155 24.6341V26.7317H176.057V24.6341H178.155ZM178.155 26.7317V28.8293H176.057V26.7317H178.155ZM173.96 26.7317V28.8293H171.862V26.7317H173.96ZM173.96 24.6341V26.7317H171.862V24.6341H173.96ZM173.96 22.5366V24.6341H171.862V22.5366H173.96ZM178.155 22.5366V24.6341H176.057V22.5366H178.155ZM173.96 14.1463V16.2439H171.862V14.1463H173.96ZM173.96 16.2439V18.3415H171.862V16.2439H173.96ZM176.057 16.2439V18.3415H173.96V16.2439H176.057ZM178.155 16.2439V18.3415H176.057V16.2439H178.155ZM178.155 18.3415V20.439H176.057V18.3415H178.155ZM180.252 18.3415V20.439H178.155V18.3415H180.252ZM180.252 20.439V22.5366H178.155V20.439H180.252ZM178.155 20.439V22.5366H176.057V20.439H178.155ZM176.057 20.439V22.5366H173.96V20.439H176.057ZM176.057 18.3415V20.439H173.96V18.3415H176.057ZM173.96 18.3415V20.439H171.862V18.3415H173.96ZM171.862 18.3415V20.439H169.765V18.3415H171.862ZM171.862 20.439V22.5366H169.765V20.439H171.862ZM173.96 20.439V22.5366H171.862V20.439H173.96ZM171.862 22.5366V24.6341H169.765V22.5366H171.862ZM171.862 14.1463V16.2439H169.765V14.1463H171.862ZM171.862 16.2439V18.3415H169.765V16.2439H171.862ZM169.765 14.1463V16.2439H167.667V14.1463H169.765ZM169.765 16.2439V18.3415H167.667V16.2439H169.765ZM169.765 18.3415V20.439H167.667V18.3415H169.765ZM167.667 16.2439V18.3415H165.57V16.2439H167.667ZM165.57 18.3415V20.439H163.472V18.3415H165.57ZM165.57 20.439V22.5366H163.472V20.439H165.57ZM167.667 20.439V22.5366H165.57V20.439H167.667ZM167.667 18.3415V20.439H165.57V18.3415H167.667ZM165.57 22.5366V24.6341H163.472V22.5366H165.57ZM192.838 51.9024V54H190.74V51.9024H192.838ZM194.935 51.9024V54H192.838V51.9024H194.935ZM197.033 51.9024V54H194.935V51.9024H197.033ZM199.131 51.9024V54H197.033V51.9024H199.131ZM201.228 49.8049V51.9024H199.131V49.8049H201.228ZM201.228 47.7073V49.8049H199.131V47.7073H201.228ZM201.228 51.9024V54H199.131V51.9024H201.228ZM199.131 49.8049V51.9024H197.033V49.8049H199.131ZM197.033 49.8049V51.9024H194.935V49.8049H197.033ZM194.935 49.8049V51.9024H192.838V49.8049H194.935ZM192.838 49.8049V51.9024H190.74V49.8049H192.838ZM192.838 47.7073V49.8049H190.74V47.7073H192.838ZM192.838 45.6098V47.7073H190.74V45.6098H192.838ZM194.935 45.6098V47.7073H192.838V45.6098H194.935ZM197.033 45.6098V47.7073H194.935V45.6098H197.033ZM199.131 45.6098V47.7073H197.033V45.6098H199.131ZM201.228 45.6098V47.7073H199.131V45.6098H201.228ZM199.131 47.7073V49.8049H197.033V47.7073H199.131ZM197.033 47.7073V49.8049H194.935V47.7073H197.033ZM194.935 47.7073V49.8049H192.838V47.7073H194.935ZM201.228 22.5366V24.6341H199.131V22.5366H201.228ZM199.131 22.5366V24.6341H197.033V22.5366H199.131ZM194.935 22.5366V24.6341H192.838V22.5366H194.935ZM194.935 24.6341V26.7317H192.838V24.6341H194.935ZM194.935 26.7317V28.8293H192.838V26.7317H194.935ZM192.838 28.8293V30.9268H190.74V28.8293H192.838ZM192.838 30.9268V33.0244H190.74V30.9268H192.838ZM192.838 33.0244V35.122H190.74V33.0244H192.838ZM192.838 35.122V37.2195H190.74V35.122H192.838ZM192.838 37.2195V39.3171H190.74V37.2195H192.838ZM192.838 39.3171V41.4146H190.74V39.3171H192.838ZM192.838 41.4146V43.5122H190.74V41.4146H192.838ZM192.838 43.5122V45.6098H190.74V43.5122H192.838ZM194.935 43.5122V45.6098H192.838V43.5122H194.935ZM197.033 43.5122V45.6098H194.935V43.5122H197.033ZM199.131 43.5122V45.6098H197.033V43.5122H199.131ZM201.228 43.5122V45.6098H199.131V43.5122H201.228ZM201.228 41.4146V43.5122H199.131V41.4146H201.228ZM201.228 37.2195V39.3171H199.131V37.2195H201.228ZM201.228 35.122V37.2195H199.131V35.122H201.228ZM201.228 33.0244V35.122H199.131V33.0244H201.228ZM201.228 30.9268V33.0244H199.131V30.9268H201.228ZM201.228 28.8293V30.9268H199.131V28.8293H201.228ZM201.228 26.7317V28.8293H199.131V26.7317H201.228ZM201.228 24.6341V26.7317H199.131V24.6341H201.228ZM199.131 33.0244V35.122H197.033V33.0244H199.131ZM199.131 37.2195V39.3171H197.033V37.2195H199.131ZM199.131 39.3171V41.4146H197.033V39.3171H199.131ZM199.131 41.4146V43.5122H197.033V41.4146H199.131ZM201.228 39.3171V41.4146H199.131V39.3171H201.228ZM199.131 28.8293V30.9268H197.033V28.8293H199.131ZM197.033 28.8293V30.9268H194.935V28.8293H197.033ZM194.935 28.8293V30.9268H192.838V28.8293H194.935ZM194.935 30.9268V33.0244H192.838V30.9268H194.935ZM194.935 33.0244V35.122H192.838V33.0244H194.935ZM194.935 35.122V37.2195H192.838V35.122H194.935ZM194.935 37.2195V39.3171H192.838V37.2195H194.935ZM194.935 39.3171V41.4146H192.838V39.3171H194.935ZM194.935 41.4146V43.5122H192.838V41.4146H194.935ZM197.033 41.4146V43.5122H194.935V41.4146H197.033ZM197.033 39.3171V41.4146H194.935V39.3171H197.033ZM197.033 37.2195V39.3171H194.935V37.2195H197.033ZM197.033 35.122V37.2195H194.935V35.122H197.033ZM197.033 33.0244V35.122H194.935V33.0244H197.033ZM197.033 30.9268V33.0244H194.935V30.9268H197.033ZM199.131 30.9268V33.0244H197.033V30.9268H199.131ZM199.131 35.122V37.2195H197.033V35.122H199.131ZM199.131 26.7317V28.8293H197.033V26.7317H199.131ZM199.131 24.6341V26.7317H197.033V24.6341H199.131ZM197.033 24.6341V26.7317H194.935V24.6341H197.033ZM197.033 26.7317V28.8293H194.935V26.7317H197.033ZM192.838 26.7317V28.8293H190.74V26.7317H192.838ZM192.838 24.6341V26.7317H190.74V24.6341H192.838ZM192.838 22.5366V24.6341H190.74V22.5366H192.838ZM197.033 22.5366V24.6341H194.935V22.5366H197.033ZM192.838 14.1463V16.2439H190.74V14.1463H192.838ZM192.838 16.2439V18.3415H190.74V16.2439H192.838ZM194.935 16.2439V18.3415H192.838V16.2439H194.935ZM197.033 16.2439V18.3415H194.935V16.2439H197.033ZM197.033 18.3415V20.439H194.935V18.3415H197.033ZM199.131 18.3415V20.439H197.033V18.3415H199.131ZM199.131 20.439V22.5366H197.033V20.439H199.131ZM197.033 20.439V22.5366H194.935V20.439H197.033ZM194.935 20.439V22.5366H192.838V20.439H194.935ZM194.935 18.3415V20.439H192.838V18.3415H194.935ZM192.838 18.3415V20.439H190.74V18.3415H192.838ZM190.74 18.3415V20.439H188.643V18.3415H190.74ZM190.74 20.439V22.5366H188.643V20.439H190.74ZM192.838 20.439V22.5366H190.74V20.439H192.838ZM190.74 22.5366V24.6341H188.643V22.5366H190.74ZM188.643 20.439V22.5366H186.545V20.439H188.643ZM188.643 18.3415V20.439H186.545V18.3415H188.643ZM188.643 16.2439V18.3415H186.545V16.2439H188.643ZM188.643 14.1463V16.2439H186.545V14.1463H188.643ZM190.74 14.1463V16.2439H188.643V14.1463H190.74ZM190.74 16.2439V18.3415H188.643V16.2439H190.74ZM186.545 14.1463V16.2439H184.448V14.1463H186.545ZM186.545 16.2439V18.3415H184.448V16.2439H186.545ZM184.448 16.2439V18.3415H182.35V16.2439H184.448ZM184.448 18.3415V20.439H182.35V18.3415H184.448ZM182.35 18.3415V20.439H180.252V18.3415H182.35ZM182.35 20.439V22.5366H180.252V20.439H182.35ZM184.448 20.439V22.5366H182.35V20.439H184.448ZM186.545 20.439V22.5366H184.448V20.439H186.545ZM186.545 18.3415V20.439H184.448V18.3415H186.545ZM182.35 22.5366V24.6341H180.252V22.5366H182.35ZM184.448 22.5366V24.6341H182.35V22.5366H184.448ZM182.35 24.6341V26.7317H180.252V24.6341H182.35ZM167.667 14.1463V16.2439H165.57V14.1463H167.667ZM165.57 16.2439V18.3415H163.472V16.2439H165.57ZM184.448 14.1463V16.2439H182.35V14.1463H184.448ZM182.35 16.2439V18.3415H180.252V16.2439H182.35ZM169.765 20.439V22.5366H167.667V20.439H169.765ZM176.057 14.1463V16.2439H173.96V14.1463H176.057Z" fill="#656565"/>
</svg>
